<svg width="496" height="313" viewBox="0 0 496 313" fill="none" xmlns="http://www.w3.org/2000/svg">
<rect width="496" height="313" fill="#115436"/>
<path d="M176.481 8C168.153 8 161.369 14.781 161.369 23.106V154.024C161.369 162.35 168.153 169.13 176.481 169.13H307.455C315.784 169.13 322.568 162.35 322.568 154.024V23.106C322.568 14.781 315.784 8 307.455 8H176.481ZM176.481 13.0354H307.455C313.081 13.0354 317.53 17.4835 317.53 23.106V154.024C317.53 159.647 313.081 164.095 307.455 164.095H176.481C170.856 164.095 166.407 159.647 166.407 154.024V23.106C166.407 17.4835 170.856 13.0354 176.481 13.0354ZM180.26 18.0706C175.421 18.0706 171.444 22.046 171.444 26.8825C171.444 31.7193 175.421 35.6942 180.26 35.6942C185.098 35.6942 189.075 31.7193 189.075 26.8825C189.075 22.046 185.098 18.0706 180.26 18.0706ZM303.677 18.0706C298.838 18.0706 294.862 22.046 294.862 26.8825C294.862 31.7193 298.838 35.6942 303.677 35.6942C308.516 35.6942 312.493 31.7193 312.493 26.8825C312.493 22.046 308.516 18.0706 303.677 18.0706ZM180.26 23.106C182.376 23.106 184.038 24.7671 184.038 26.8825C184.038 28.9983 182.376 30.659 180.26 30.659C178.143 30.659 176.481 28.9983 176.481 26.8825C176.481 24.7671 178.143 23.106 180.26 23.106ZM224.337 23.106V38.2119H219.3C218.632 38.212 217.991 38.4773 217.519 38.9494C217.047 39.4216 216.781 40.0619 216.781 40.7296V48.2823H208.91C204.942 48.2823 201.669 51.5549 201.669 55.5212V63.3889H194.113C193.499 63.3909 192.908 63.6178 192.45 64.0246C191.991 64.4324 191.698 64.9932 191.623 65.6009C191.62 65.6179 191.617 65.6339 191.613 65.6509C191.61 65.6829 191.606 65.7159 191.604 65.7489C191.599 65.7979 191.596 65.8468 191.594 65.8968C191.594 65.9128 191.594 65.9288 191.594 65.9458V70.9417H176.481V75.9765H191.594V81.0124H176.481V86.0473H191.594V91.0831H176.481V96.118H191.594V101.154H176.481V106.189H191.594V111.264C191.594 111.931 191.859 112.571 192.332 113.044C192.804 113.516 193.445 113.781 194.113 113.781H201.669V121.609C201.669 125.575 204.942 128.848 208.91 128.848H216.781V136.401C216.782 136.932 216.951 137.448 217.264 137.878C217.577 138.307 218.017 138.627 218.523 138.791C218.603 138.818 218.685 138.841 218.769 138.86C218.933 138.896 219.102 138.916 219.27 138.919H219.3H224.337V154.024H229.375V138.919H234.412V154.024H239.45V138.919H244.487V154.024H249.525V138.919H254.562V154.024H259.6V138.919H264.46H264.637C264.722 138.923 264.808 138.923 264.893 138.919C264.976 138.906 265.058 138.89 265.139 138.869C265.708 138.754 266.22 138.444 266.588 137.994C266.955 137.544 267.156 136.982 267.156 136.401V128.848H275.027C278.995 128.848 282.268 125.575 282.268 121.609V113.781H289.824L289.785 113.731C290.118 113.737 290.449 113.677 290.759 113.553C291.068 113.429 291.35 113.245 291.588 113.012C291.826 112.779 292.015 112.501 292.145 112.193C292.274 111.886 292.342 111.557 292.343 111.225V106.189H307.455V101.154H292.343V96.118H307.455V91.0831H292.343V86.0473H307.455V81.0124H292.343V75.9765H307.455V70.9417H292.343V65.9058C292.343 65.2381 292.078 64.5984 291.605 64.1256C291.133 63.6538 290.492 63.3889 289.824 63.3889H282.268V55.5212C282.268 51.5549 278.995 48.2823 275.027 48.2823H267.156V40.7296L267.116 40.7788C267.117 40.6934 267.114 40.608 267.107 40.5231C267.055 39.9001 266.774 39.3186 266.318 38.8915C265.861 38.4643 265.262 38.2221 264.637 38.2119H259.6V23.106H254.562V38.2119H249.525V23.106H244.487V38.2119H239.45V23.106H234.412V38.2119H229.375V23.106H224.337ZM303.677 23.106C305.794 23.106 307.455 24.7671 307.455 26.8825C307.455 28.9983 305.794 30.659 303.677 30.659C301.561 30.659 299.899 28.9983 299.899 26.8825C299.899 24.7671 301.561 23.106 303.677 23.106ZM221.819 43.2472H262.118V48.2823H221.819V43.2472ZM208.91 53.3182H275.027C276.291 53.3182 277.231 54.2567 277.231 55.5212V65.8968C277.23 65.9128 277.23 65.9288 277.231 65.9458V111.264V121.609C277.231 122.873 276.291 123.812 275.027 123.812H208.91C207.646 123.812 206.706 122.873 206.706 121.609V111.225V65.9058V55.5212C206.706 54.2567 207.645 53.3182 208.91 53.3182ZM221.819 65.9058C221.151 65.9058 220.51 66.1717 220.038 66.6435C219.565 67.1153 219.3 67.756 219.3 68.4237C219.3 69.0915 219.565 69.7322 220.038 70.204C220.51 70.6758 221.151 70.9417 221.819 70.9417C222.487 70.9417 223.127 70.6758 223.6 70.204C224.072 69.7322 224.337 69.0915 224.337 68.4237C224.337 67.756 224.072 67.1153 223.6 66.6435C223.127 66.1717 222.487 65.9058 221.819 65.9058ZM231.893 65.9058C231.225 65.9058 230.585 66.1717 230.112 66.6435C229.64 67.1153 229.375 67.756 229.375 68.4237C229.375 69.0915 229.64 69.7322 230.112 70.204C230.585 70.6758 231.225 70.9417 231.893 70.9417C232.562 70.9417 233.202 70.6758 233.675 70.204C234.147 69.7322 234.412 69.0915 234.412 68.4237C234.412 67.756 234.147 67.1153 233.675 66.6435C233.202 66.1717 232.562 65.9058 231.893 65.9058ZM241.968 65.9058C241.3 65.9058 240.66 66.1717 240.187 66.6435C239.715 67.1153 239.45 67.756 239.45 68.4237C239.45 69.0915 239.715 69.7322 240.187 70.204C240.66 70.6758 241.3 70.9417 241.968 70.9417C242.636 70.9417 243.277 70.6758 243.749 70.204C244.222 69.7322 244.487 69.0915 244.487 68.4237C244.487 67.756 244.222 67.1153 243.749 66.6435C243.277 66.1717 242.636 65.9058 241.968 65.9058ZM252.043 65.9058C251.375 65.9058 250.735 66.1717 250.262 66.6435C249.79 67.1153 249.525 67.756 249.525 68.4237C249.525 69.0915 249.79 69.7322 250.262 70.204C250.735 70.6758 251.375 70.9417 252.043 70.9417C252.711 70.9417 253.352 70.6758 253.824 70.204C254.297 69.7322 254.562 69.0915 254.562 68.4237C254.562 67.756 254.297 67.1153 253.824 66.6435C253.352 66.1717 252.711 65.9058 252.043 65.9058ZM262.118 65.9058C261.45 65.9058 260.81 66.1717 260.337 66.6435C259.865 67.1153 259.6 67.756 259.6 68.4237C259.6 69.0915 259.865 69.7322 260.337 70.204C260.81 70.6758 261.45 70.9417 262.118 70.9417C262.786 70.9417 263.427 70.6758 263.899 70.204C264.372 69.7322 264.637 69.0915 264.637 68.4237C264.637 67.756 264.372 67.1153 263.899 66.6435C263.427 66.1717 262.786 65.9058 262.118 65.9058ZM196.631 68.4237H201.669V108.707H196.631V68.4237ZM282.268 68.4237H287.306V108.707H282.268V68.4237ZM226.856 75.9765C226.188 75.9765 225.547 76.2424 225.075 76.7142C224.603 77.186 224.337 77.8267 224.337 78.4944C224.337 79.1622 224.603 79.8029 225.075 80.2747C225.547 80.7465 226.188 81.0124 226.856 81.0124C227.524 81.0124 228.165 80.7465 228.637 80.2747C229.109 79.8029 229.375 79.1622 229.375 78.4944C229.375 77.8267 229.109 77.186 228.637 76.7142C228.165 76.2424 227.524 75.9765 226.856 75.9765ZM236.931 75.9765C236.263 75.9765 235.622 76.2424 235.15 76.7142C234.678 77.186 234.412 77.8267 234.412 78.4944C234.412 79.1622 234.678 79.8029 235.15 80.2747C235.622 80.7465 236.263 81.0124 236.931 81.0124C237.599 81.0124 238.24 80.7465 238.712 80.2747C239.184 79.8029 239.45 79.1622 239.45 78.4944C239.45 77.8267 239.184 77.186 238.712 76.7142C238.24 76.2424 237.599 75.9765 236.931 75.9765ZM247.006 75.9765C246.338 75.9765 245.697 76.2424 245.225 76.7142C244.753 77.186 244.487 77.8267 244.487 78.4944C244.487 79.1622 244.753 79.8029 245.225 80.2747C245.697 80.7465 246.338 81.0124 247.006 81.0124C247.674 81.0124 248.315 80.7465 248.787 80.2747C249.259 79.8029 249.525 79.1622 249.525 78.4944C249.525 77.8267 249.259 77.186 248.787 76.7142C248.315 76.2424 247.674 75.9765 247.006 75.9765ZM257.081 75.9765C256.413 75.9765 255.772 76.2424 255.3 76.7142C254.827 77.186 254.562 77.8267 254.562 78.4944C254.562 79.1622 254.827 79.8029 255.3 80.2747C255.772 80.7465 256.413 81.0124 257.081 81.0124C257.749 81.0124 258.389 80.7465 258.862 80.2747C259.334 79.8029 259.6 79.1622 259.6 78.4944C259.6 77.8267 259.334 77.186 258.862 76.7142C258.389 76.2424 257.749 75.9765 257.081 75.9765ZM221.819 86.0473C221.151 86.0473 220.51 86.3131 220.038 86.7849C219.565 87.2567 219.3 87.8975 219.3 88.5652C219.3 89.2329 219.565 89.8736 220.038 90.3454C220.51 90.8172 221.151 91.0831 221.819 91.0831C222.487 91.0831 223.127 90.8172 223.6 90.3454C224.072 89.8736 224.337 89.2329 224.337 88.5652C224.337 87.8975 224.072 87.2567 223.6 86.7849C223.127 86.3131 222.487 86.0473 221.819 86.0473ZM231.893 86.0473C231.225 86.0473 230.585 86.3131 230.112 86.7849C229.64 87.2567 229.375 87.8975 229.375 88.5652C229.375 89.2329 229.64 89.8736 230.112 90.3454C230.585 90.8172 231.225 91.0831 231.893 91.0831C232.562 91.0831 233.202 90.8172 233.675 90.3454C234.147 89.8736 234.412 89.2329 234.412 88.5652C234.412 87.8975 234.147 87.2567 233.675 86.7849C233.202 86.3131 232.562 86.0473 231.893 86.0473ZM241.968 86.0473C241.3 86.0473 240.66 86.3131 240.187 86.7849C239.715 87.2567 239.45 87.8975 239.45 88.5652C239.45 89.2329 239.715 89.8736 240.187 90.3454C240.66 90.8172 241.3 91.0831 241.968 91.0831C242.636 91.0831 243.277 90.8172 243.749 90.3454C244.222 89.8736 244.487 89.2329 244.487 88.5652C244.487 87.8975 244.222 87.2567 243.749 86.7849C243.277 86.3131 242.636 86.0473 241.968 86.0473ZM252.043 86.0473C251.375 86.0473 250.735 86.3131 250.262 86.7849C249.79 87.2567 249.525 87.8975 249.525 88.5652C249.525 89.2329 249.79 89.8736 250.262 90.3454C250.735 90.8172 251.375 91.0831 252.043 91.0831C252.711 91.0831 253.352 90.8172 253.824 90.3454C254.297 89.8736 254.562 89.2329 254.562 88.5652C254.562 87.8975 254.297 87.2567 253.824 86.7849C253.352 86.3131 252.711 86.0473 252.043 86.0473ZM262.118 86.0473C261.45 86.0473 260.81 86.3131 260.337 86.7849C259.865 87.2567 259.6 87.8975 259.6 88.5652C259.6 89.2329 259.865 89.8736 260.337 90.3454C260.81 90.8172 261.45 91.0831 262.118 91.0831C262.786 91.0831 263.427 90.8172 263.899 90.3454C264.372 89.8736 264.637 89.2329 264.637 88.5652C264.637 87.8975 264.372 87.2567 263.899 86.7849C263.427 86.3131 262.786 86.0473 262.118 86.0473ZM226.856 96.118C226.188 96.118 225.547 96.3829 225.075 96.8557C224.603 97.3275 224.337 97.9682 224.337 98.6359C224.337 99.3036 224.603 99.9444 225.075 100.416C225.547 100.888 226.188 101.154 226.856 101.154C227.524 101.154 228.165 100.888 228.637 100.416C229.109 99.9444 229.375 99.3036 229.375 98.6359C229.375 97.9682 229.109 97.3275 228.637 96.8557C228.165 96.3829 227.524 96.118 226.856 96.118ZM236.931 96.118C236.263 96.118 235.622 96.3829 235.15 96.8557C234.678 97.3275 234.412 97.9682 234.412 98.6359C234.412 99.3036 234.678 99.9444 235.15 100.416C235.622 100.888 236.263 101.154 236.931 101.154C237.599 101.154 238.24 100.888 238.712 100.416C239.184 99.9444 239.45 99.3036 239.45 98.6359C239.45 97.9682 239.184 97.3275 238.712 96.8557C238.24 96.3829 237.599 96.118 236.931 96.118ZM247.006 96.118C246.338 96.118 245.697 96.3829 245.225 96.8557C244.753 97.3275 244.487 97.9682 244.487 98.6359C244.487 99.3036 244.753 99.9444 245.225 100.416C245.697 100.888 246.338 101.154 247.006 101.154C247.674 101.154 248.315 100.888 248.787 100.416C249.259 99.9444 249.525 99.3036 249.525 98.6359C249.525 97.9682 249.259 97.3275 248.787 96.8557C248.315 96.3829 247.674 96.118 247.006 96.118ZM257.081 96.118C256.413 96.118 255.772 96.3829 255.3 96.8557C254.827 97.3275 254.562 97.9682 254.562 98.6359C254.562 99.3036 254.827 99.9444 255.3 100.416C255.772 100.888 256.413 101.154 257.081 101.154C257.749 101.154 258.389 100.888 258.862 100.416C259.334 99.9444 259.6 99.3036 259.6 98.6359C259.6 97.9682 259.334 97.3275 258.862 96.8557C258.389 96.3829 257.749 96.118 257.081 96.118ZM221.819 106.189C221.151 106.189 220.51 106.454 220.038 106.926C219.565 107.398 219.3 108.039 219.3 108.707C219.3 109.374 219.565 110.014 220.038 110.487C220.51 110.959 221.151 111.225 221.819 111.225C222.487 111.225 223.127 110.959 223.6 110.487C224.072 110.014 224.337 109.374 224.337 108.707C224.337 108.039 224.072 107.398 223.6 106.926C223.127 106.454 222.487 106.189 221.819 106.189ZM231.893 106.189C231.225 106.189 230.585 106.454 230.112 106.926C229.64 107.398 229.375 108.039 229.375 108.707C229.375 109.374 229.64 110.014 230.112 110.487C230.585 110.959 231.225 111.225 231.893 111.225C232.562 111.225 233.202 110.959 233.675 110.487C234.147 110.014 234.412 109.374 234.412 108.707C234.412 108.039 234.147 107.398 233.675 106.926C233.202 106.454 232.562 106.189 231.893 106.189ZM241.968 106.189C241.3 106.189 240.66 106.454 240.187 106.926C239.715 107.398 239.45 108.039 239.45 108.707C239.45 109.374 239.715 110.014 240.187 110.487C240.66 110.959 241.3 111.225 241.968 111.225C242.636 111.225 243.277 110.959 243.749 110.487C244.222 110.014 244.487 109.374 244.487 108.707C244.487 108.039 244.222 107.398 243.749 106.926C243.277 106.454 242.636 106.189 241.968 106.189ZM252.043 106.189C251.375 106.189 250.735 106.454 250.262 106.926C249.79 107.398 249.525 108.039 249.525 108.707C249.525 109.374 249.79 110.014 250.262 110.487C250.735 110.959 251.375 111.225 252.043 111.225C252.711 111.225 253.352 110.959 253.824 110.487C254.297 110.014 254.562 109.374 254.562 108.707C254.562 108.039 254.297 107.398 253.824 106.926C253.352 106.454 252.711 106.189 252.043 106.189ZM262.118 106.189C261.45 106.189 260.81 106.454 260.337 106.926C259.865 107.398 259.6 108.039 259.6 108.707C259.6 109.374 259.865 110.014 260.337 110.487C260.81 110.959 261.45 111.225 262.118 111.225C262.786 111.225 263.427 110.959 263.899 110.487C264.372 110.014 264.637 109.374 264.637 108.707C264.637 108.039 264.372 107.398 263.899 106.926C263.427 106.454 262.786 106.189 262.118 106.189ZM221.819 128.848H262.118V133.883H221.819V128.848ZM180.26 141.436C175.421 141.436 171.444 145.411 171.444 150.248C171.444 155.085 175.421 159.059 180.26 159.059C185.098 159.059 189.075 155.085 189.075 150.248C189.075 145.411 185.098 141.436 180.26 141.436ZM303.677 141.436C298.838 141.436 294.862 145.411 294.862 150.248C294.862 155.085 298.838 159.059 303.677 159.059C308.516 159.059 312.493 155.085 312.493 150.248C312.493 145.411 308.516 141.436 303.677 141.436ZM180.26 146.472C182.376 146.472 184.038 148.133 184.038 150.248C184.038 152.364 182.376 154.024 180.26 154.024C178.143 154.024 176.481 152.364 176.481 150.248C176.481 148.133 178.143 146.472 180.26 146.472ZM303.677 146.472C305.794 146.472 307.455 148.133 307.455 150.248C307.455 152.364 305.794 154.024 303.677 154.024C301.561 154.024 299.899 152.364 299.899 150.248C299.899 148.133 301.561 146.472 303.677 146.472Z" fill="#FFFFFF"/>
<path d="M81.9896 303.983L82.2898 304.37H82.7796H92.735H94.785L93.523 302.754L64.721 265.917L64.4207 265.533H63.9331H54.1796H52.1377L53.3896 267.146L81.9896 303.983Z" fill="#FFFFFF" stroke="#FFFFFF" stroke-width="2"/>
<path d="M273.338 303.291V304.29H274.338H283.829H284.829V303.291V269.228H324.622V303.291V304.29H325.622H335.113H336.113V303.291V224.9V223.9H335.113H325.622H324.622V224.9V258.809H284.829V224.9V223.9H283.829H274.338H273.338V224.9V303.291Z" fill="#FFFFFF" stroke="#FFFFFF" stroke-width="2"/>
<path d="M423.659 224.567L423.424 223.9H422.716H412.766H411.333L411.827 225.244L440.607 303.635L440.848 304.29H441.546H451.343H452.041L452.281 303.635L481.062 225.244L481.555 223.9H480.123H470.173H469.465L469.23 224.567L446.444 289.186L423.659 224.567Z" fill="#FFFFFF" stroke="#FFFFFF" stroke-width="2"/>
<path d="M14 232.791V233.499L14.6673 233.734L79.2774 256.523L14.6673 279.313L14 279.548V280.255V290.207V291.638L15.3449 291.145L93.7251 262.361L94.3811 262.121V261.423V251.623V250.926L93.7251 250.686L15.3449 221.902L14 221.407V222.84V232.791Z" fill="#FFFFFF" stroke="#FFFFFF" stroke-width="2"/>
<path d="M360.279 304.277H360.987L361.222 303.609L384.007 238.992L406.792 303.609L407.028 304.277H407.735H417.686H419.118L418.625 302.932L389.845 224.542L389.604 223.887H388.906H379.108H378.41L378.17 224.542L349.389 302.932L348.896 304.277H350.328H360.279Z" fill="#FFFFFF" stroke="#FFFFFF" stroke-width="2"/>
<path d="M122.949 305H123.656L123.892 304.333L146.677 239.717L169.463 304.333L169.698 305H170.406H180.356H181.789L181.295 303.657L152.515 225.266L152.274 224.611H151.576H141.778H141.08L140.839 225.266L112.059 303.657L111.566 305H112.998H122.949Z" fill="#FFFFFF" stroke="#FFFFFF" stroke-width="2"/>
<path d="M246.238 248.719L246.463 249.409H247.189H256.986H258.192L257.969 248.225C257.234 244.313 255.893 240.742 253.939 237.52C251.991 234.282 249.553 231.5 246.628 229.18C243.727 226.834 240.423 225.031 236.723 223.771C233.036 222.482 229.072 221.841 224.838 221.841C219.686 221.841 214.94 222.796 210.616 224.722C206.297 226.645 202.556 229.412 199.401 233.014C196.242 236.622 193.808 240.977 192.087 246.061L192.086 246.064C190.388 251.133 189.547 256.819 189.547 263.107C189.547 271.491 191.021 278.792 194.009 284.977L194.011 284.98C197.02 291.155 201.224 295.948 206.627 299.323L206.629 299.324C212.062 302.701 218.347 304.374 225.451 304.374C231.819 304.374 237.499 303.041 242.461 300.348L242.463 300.347C247.448 297.631 251.358 293.799 254.18 288.867C257.036 283.919 258.446 278.129 258.446 271.529V263.107V262.108H257.446H227.594H226.594V263.107V271.529V272.528H227.594H247.222C247.028 276.507 246.103 279.974 244.475 282.953L244.473 282.955C242.648 286.313 240.103 288.906 236.826 290.753C233.577 292.571 229.795 293.495 225.451 293.495C220.777 293.495 216.598 292.341 212.888 290.046C209.192 287.761 206.238 284.38 204.038 279.857C201.85 275.358 200.732 269.788 200.732 263.107C200.732 256.425 201.838 250.854 204.001 246.354C206.178 241.827 209.084 238.448 212.704 236.164C216.34 233.87 220.377 232.72 224.838 232.72C227.58 232.72 230.077 233.091 232.339 233.821C234.606 234.551 236.618 235.608 238.383 236.986L238.388 236.99C240.184 238.375 241.729 240.052 243.022 242.028L243.026 242.034L243.03 242.04C244.351 243.997 245.422 246.221 246.238 248.719Z" fill="#FFFFFF" stroke="#FFFFFF" stroke-width="2"/>
</svg>
