<svg width="6108" height="2624" viewBox="0 0 6108 2624" fill="none" xmlns="http://www.w3.org/2000/svg">
<path d="M0 1397.05V1240.08L1263.62 596.494V847.649L294.322 1314.64L302.171 1298.94V1338.19L294.322 1322.49L1263.62 1789.48V2040.64L0 1397.05Z" fill="white"/>
<path d="M4069.5 1397.05L2805.87 2040.64V1789.48L3775.18 1322.49L3767.33 1338.19V1298.94L3775.18 1314.64L2805.87 847.649V596.494L4069.5 1240.08V1397.05Z" fill="white"/>
<path d="M2252.79 2405.6L1605.28 0H1817.2L2464.71 2405.6H2252.79Z" fill="white"/>
<path d="M3857.57 2623.42L3210.37 1619.42H3422.18L4069.37 2623.42H3857.57Z" fill="white"/>
<path d="M4140.39 2259.42H4084.78L4245.63 1821.34H4300.39L4461.25 2259.42H4405.64L4274.73 1890.65H4271.3L4140.39 2259.42ZM4160.93 2088.3H4385.1V2135.36H4160.93V2088.3Z" fill="white"/>
<path d="M4808.37 1958.24C4803.66 1943.84 4797.46 1930.93 4789.76 1919.53C4782.2 1907.98 4773.15 1898.14 4762.59 1890.01C4752.18 1881.88 4740.35 1875.68 4727.08 1871.4C4713.82 1867.12 4699.28 1864.98 4683.45 1864.98C4657.49 1864.98 4633.89 1871.68 4612.64 1885.09C4591.4 1898.49 4574.5 1918.24 4561.95 1944.34C4549.4 1970.44 4543.12 2002.45 4543.12 2040.38C4543.12 2078.32 4549.47 2110.33 4562.16 2136.43C4574.85 2162.52 4592.04 2182.28 4613.71 2195.68C4635.39 2209.09 4659.78 2215.79 4686.87 2215.79C4711.97 2215.79 4734.07 2210.44 4753.18 2199.74C4772.43 2188.91 4787.41 2173.65 4798.1 2153.97C4808.94 2134.15 4814.36 2110.83 4814.36 2084.02L4830.62 2087.44H4698.85V2040.38H4865.7V2087.44C4865.7 2123.52 4858 2154.9 4842.59 2181.56C4827.34 2208.23 4806.23 2228.91 4779.28 2243.6C4752.47 2258.14 4721.67 2265.41 4686.87 2265.41C4648.08 2265.41 4614 2256.29 4584.62 2238.03C4555.39 2219.78 4532.57 2193.83 4516.17 2160.17C4499.92 2126.52 4491.79 2086.59 4491.79 2040.38C4491.79 2005.73 4496.42 1974.57 4505.69 1946.91C4515.1 1919.1 4528.36 1895.43 4545.48 1875.89C4562.59 1856.35 4582.84 1841.38 4606.23 1830.97C4629.61 1820.56 4655.35 1815.35 4683.45 1815.35C4706.55 1815.35 4728.08 1818.85 4748.05 1825.84C4768.15 1832.68 4786.05 1842.45 4801.74 1855.14C4817.57 1867.69 4830.76 1882.73 4841.31 1900.27C4851.86 1917.67 4859.14 1937 4863.13 1958.24H4808.37Z" fill="white"/>
<path d="M4956.55 2259.42V1821.34H5009.6V2016.43H5243.19V1821.34H5296.24V2259.42H5243.19V2063.49H5009.6V2259.42H4956.55Z" fill="white"/>
<path d="M5420.41 2259.42H5364.79L5525.65 1821.34H5580.41L5741.27 2259.42H5685.65L5554.74 1890.65H5551.32L5420.41 2259.42ZM5440.95 2088.3H5665.12V2135.36H5440.95V2088.3Z" fill="white"/>
<path d="M5786.3 1821.34L5916.35 2190.12H5921.49L6051.54 1821.34H6107.16L5946.3 2259.42H5891.54L5730.68 1821.34H5786.3Z" fill="white"/>
</svg>
