<svg width="512" height="512" viewBox="0 0 512 512" fill="none" xmlns="http://www.w3.org/2000/svg">
<rect width="512" height="512" fill="#004040"/>
<path d="M190.026 63.8086C181.698 63.8086 174.914 70.5925 174.914 78.921V209.895C174.914 218.224 181.698 225.007 190.026 225.007H321C329.329 225.007 336.113 218.224 336.113 209.895V78.921C336.113 70.5925 329.329 63.8086 321 63.8086H190.026ZM190.026 68.8461H321C326.626 68.8461 331.075 73.2961 331.075 78.921V209.895C331.075 215.52 326.626 219.97 321 219.97H190.026C184.401 219.97 179.952 215.52 179.952 209.895V78.921C179.952 73.2961 184.401 68.8461 190.026 68.8461ZM193.805 73.8835C188.966 73.8835 184.989 77.8606 184.989 82.6991C184.989 87.538 188.966 91.5146 193.805 91.5146C198.643 91.5146 202.62 87.538 202.62 82.6991C202.62 77.8606 198.643 73.8835 193.805 73.8835ZM317.222 73.8835C312.383 73.8835 308.407 77.8606 308.407 82.6991C308.407 87.538 312.383 91.5146 317.222 91.5146C322.061 91.5146 326.038 87.538 326.038 82.6991C326.038 77.8606 322.061 73.8835 317.222 73.8835ZM193.805 78.921C195.921 78.921 197.583 80.5828 197.583 82.6991C197.583 84.8158 195.921 86.4772 193.805 86.4772C191.688 86.4772 190.026 84.8158 190.026 82.6991C190.026 80.5828 191.688 78.921 193.805 78.921ZM237.882 78.921V94.0333H232.845C232.177 94.0334 231.536 94.2988 231.064 94.7711C230.592 95.2435 230.326 95.8841 230.326 96.5521V104.108H222.455C218.487 104.108 215.214 107.382 215.214 111.35V119.221H207.658C207.044 119.223 206.453 119.45 205.995 119.857C205.536 120.265 205.243 120.826 205.168 121.434C205.165 121.451 205.162 121.467 205.158 121.484C205.155 121.516 205.151 121.549 205.149 121.582C205.144 121.631 205.141 121.68 205.139 121.73C205.139 121.746 205.139 121.762 205.139 121.779V126.777H190.026V131.814H205.139V136.852H190.026V141.889H205.139V146.927H190.026V151.964H205.139V157.002H190.026V162.039H205.139V167.116C205.139 167.784 205.404 168.424 205.877 168.897C206.349 169.369 206.99 169.635 207.658 169.635H215.214V177.466C215.214 181.434 218.487 184.708 222.455 184.708H230.326V192.264C230.327 192.795 230.496 193.312 230.809 193.742C231.122 194.171 231.562 194.491 232.068 194.655C232.148 194.682 232.23 194.705 232.314 194.724C232.478 194.76 232.647 194.78 232.815 194.783H232.845H237.882V209.895H242.92V194.783H247.957V209.895H252.995V194.783H258.032V209.895H263.07V194.783H268.107V209.895H273.145V194.783H278.005H278.182C278.267 194.787 278.353 194.787 278.438 194.783C278.521 194.77 278.603 194.754 278.684 194.733C279.253 194.618 279.765 194.308 280.133 193.858C280.5 193.408 280.701 192.845 280.701 192.264V184.708H288.572C292.54 184.708 295.813 181.434 295.813 177.466V169.635H303.369L303.33 169.585C303.663 169.591 303.994 169.53 304.304 169.406C304.613 169.282 304.895 169.098 305.133 168.865C305.371 168.632 305.56 168.354 305.69 168.046C305.819 167.739 305.887 167.41 305.888 167.077V162.039H321V157.002H305.888V151.964H321V146.927H305.888V141.889H321V136.852H305.888V131.814H321V126.777H305.888V121.739C305.888 121.071 305.623 120.431 305.15 119.958C304.678 119.486 304.037 119.221 303.369 119.221H295.813V111.35C295.813 107.382 292.54 104.108 288.572 104.108H280.701V96.5521L280.661 96.6013C280.662 96.5159 280.659 96.4305 280.652 96.3455C280.6 95.7223 280.319 95.1405 279.863 94.7132C279.406 94.2858 278.807 94.0435 278.182 94.0333H273.145V78.921H268.107V94.0333H263.07V78.921H258.032V94.0333H252.995V78.921H247.957V94.0333H242.92V78.921H237.882ZM317.222 78.921C319.339 78.921 321 80.5828 321 82.6991C321 84.8158 319.339 86.4772 317.222 86.4772C315.106 86.4772 313.444 84.8158 313.444 82.6991C313.444 80.5828 315.106 78.921 317.222 78.921ZM235.364 99.0708H275.663V104.108H235.364V99.0708ZM222.455 109.146H288.572C289.836 109.146 290.776 110.085 290.776 111.35V121.73C290.775 121.746 290.775 121.762 290.776 121.779V167.116V177.466C290.776 178.73 289.836 179.67 288.572 179.67H222.455C221.191 179.67 220.251 178.73 220.251 177.466V167.077V121.739V111.35C220.251 110.085 221.19 109.146 222.455 109.146ZM235.364 121.739C234.696 121.739 234.055 122.005 233.583 122.477C233.11 122.949 232.845 123.59 232.845 124.258C232.845 124.926 233.11 125.567 233.583 126.039C234.055 126.511 234.696 126.777 235.364 126.777C236.032 126.777 236.672 126.511 237.145 126.039C237.617 125.567 237.882 124.926 237.882 124.258C237.882 123.59 237.617 122.949 237.145 122.477C236.672 122.005 236.032 121.739 235.364 121.739ZM245.438 121.739C244.77 121.739 244.13 122.005 243.657 122.477C243.185 122.949 242.92 123.59 242.92 124.258C242.92 124.926 243.185 125.567 243.657 126.039C244.13 126.511 244.77 126.777 245.438 126.777C246.107 126.777 246.747 126.511 247.22 126.039C247.692 125.567 247.957 124.926 247.957 124.258C247.957 123.59 247.692 122.949 247.22 122.477C246.747 122.005 246.107 121.739 245.438 121.739ZM255.513 121.739C254.845 121.739 254.205 122.005 253.732 122.477C253.26 122.949 252.995 123.59 252.995 124.258C252.995 124.926 253.26 125.567 253.732 126.039C254.205 126.511 254.845 126.777 255.513 126.777C256.181 126.777 256.822 126.511 257.294 126.039C257.767 125.567 258.032 124.926 258.032 124.258C258.032 123.59 257.767 122.949 257.294 122.477C256.822 122.005 256.181 121.739 255.513 121.739ZM265.588 121.739C264.92 121.739 264.28 122.005 263.807 122.477C263.335 122.949 263.07 123.59 263.07 124.258C263.07 124.926 263.335 125.567 263.807 126.039C264.28 126.511 264.92 126.777 265.588 126.777C266.256 126.777 266.897 126.511 267.369 126.039C267.842 125.567 268.107 124.926 268.107 124.258C268.107 123.59 267.842 122.949 267.369 122.477C266.897 122.005 266.256 121.739 265.588 121.739ZM275.663 121.739C274.995 121.739 274.355 122.005 273.882 122.477C273.41 122.949 273.145 123.59 273.145 124.258C273.145 124.926 273.41 125.567 273.882 126.039C274.355 126.511 274.995 126.777 275.663 126.777C276.331 126.777 276.972 126.511 277.444 126.039C277.917 125.567 278.182 124.926 278.182 124.258C278.182 123.59 277.917 122.949 277.444 122.477C276.972 122.005 276.331 121.739 275.663 121.739ZM210.176 124.258H215.214V164.558H210.176V124.258ZM295.813 124.258H300.851V164.558H295.813V124.258ZM240.401 131.814C239.733 131.814 239.092 132.08 238.62 132.552C238.148 133.024 237.882 133.665 237.882 134.333C237.882 135.001 238.148 135.642 238.62 136.114C239.092 136.586 239.733 136.852 240.401 136.852C241.069 136.852 241.71 136.586 242.182 136.114C242.654 135.642 242.92 135.001 242.92 134.333C242.92 133.665 242.654 133.024 242.182 132.552C241.71 132.08 241.069 131.814 240.401 131.814ZM250.476 131.814C249.808 131.814 249.167 132.08 248.695 132.552C248.223 133.024 247.957 133.665 247.957 134.333C247.957 135.001 248.223 135.642 248.695 136.114C249.167 136.586 249.808 136.852 250.476 136.852C251.144 136.852 251.785 136.586 252.257 136.114C252.729 135.642 252.995 135.001 252.995 134.333C252.995 133.665 252.729 133.024 252.257 132.552C251.785 132.08 251.144 131.814 250.476 131.814ZM260.551 131.814C259.883 131.814 259.242 132.08 258.77 132.552C258.298 133.024 258.032 133.665 258.032 134.333C258.032 135.001 258.298 135.642 258.77 136.114C259.242 136.586 259.883 136.852 260.551 136.852C261.219 136.852 261.86 136.586 262.332 136.114C262.804 135.642 263.07 135.001 263.07 134.333C263.07 133.665 262.804 133.024 262.332 132.552C261.86 132.08 261.219 131.814 260.551 131.814ZM270.626 131.814C269.958 131.814 269.317 132.08 268.845 132.552C268.372 133.024 268.107 133.665 268.107 134.333C268.107 135.001 268.372 135.642 268.845 136.114C269.317 136.586 269.958 136.852 270.626 136.852C271.294 136.852 271.934 136.586 272.407 136.114C272.879 135.642 273.145 135.001 273.145 134.333C273.145 133.665 272.879 133.024 272.407 132.552C271.934 132.08 271.294 131.814 270.626 131.814ZM235.364 141.889C234.696 141.889 234.055 142.155 233.583 142.627C233.11 143.099 232.845 143.74 232.845 144.408C232.845 145.076 233.11 145.717 233.583 146.189C234.055 146.661 234.696 146.927 235.364 146.927C236.032 146.927 236.672 146.661 237.145 146.189C237.617 145.717 237.882 145.076 237.882 144.408C237.882 143.74 237.617 143.099 237.145 142.627C236.672 142.155 236.032 141.889 235.364 141.889ZM245.438 141.889C244.77 141.889 244.13 142.155 243.657 142.627C243.185 143.099 242.92 143.74 242.92 144.408C242.92 145.076 243.185 145.717 243.657 146.189C244.13 146.661 244.77 146.927 245.438 146.927C246.107 146.927 246.747 146.661 247.22 146.189C247.692 145.717 247.957 145.076 247.957 144.408C247.957 143.74 247.692 143.099 247.22 142.627C246.747 142.155 246.107 141.889 245.438 141.889ZM255.513 141.889C254.845 141.889 254.205 142.155 253.732 142.627C253.26 143.099 252.995 143.74 252.995 144.408C252.995 145.076 253.26 145.717 253.732 146.189C254.205 146.661 254.845 146.927 255.513 146.927C256.181 146.927 256.822 146.661 257.294 146.189C257.767 145.717 258.032 145.076 258.032 144.408C258.032 143.74 257.767 143.099 257.294 142.627C256.822 142.155 256.181 141.889 255.513 141.889ZM265.588 141.889C264.92 141.889 264.28 142.155 263.807 142.627C263.335 143.099 263.07 143.74 263.07 144.408C263.07 145.076 263.335 145.717 263.807 146.189C264.28 146.661 264.92 146.927 265.588 146.927C266.256 146.927 266.897 146.661 267.369 146.189C267.842 145.717 268.107 145.076 268.107 144.408C268.107 143.74 267.842 143.099 267.369 142.627C266.897 142.155 266.256 141.889 265.588 141.889ZM275.663 141.889C274.995 141.889 274.355 142.155 273.882 142.627C273.41 143.099 273.145 143.74 273.145 144.408C273.145 145.076 273.41 145.717 273.882 146.189C274.355 146.661 274.995 146.927 275.663 146.927C276.331 146.927 276.972 146.661 277.444 146.189C277.917 145.717 278.182 145.076 278.182 144.408C278.182 143.74 277.917 143.099 277.444 142.627C276.972 142.155 276.331 141.889 275.663 141.889ZM240.401 151.964C239.733 151.964 239.092 152.229 238.62 152.702C238.148 153.174 237.882 153.815 237.882 154.483C237.882 155.151 238.148 155.792 238.62 156.264C239.092 156.736 239.733 157.002 240.401 157.002C241.069 157.002 241.71 156.736 242.182 156.264C242.654 155.792 242.92 155.151 242.92 154.483C242.92 153.815 242.654 153.174 242.182 152.702C241.71 152.229 241.069 151.964 240.401 151.964ZM250.476 151.964C249.808 151.964 249.167 152.229 248.695 152.702C248.223 153.174 247.957 153.815 247.957 154.483C247.957 155.151 248.223 155.792 248.695 156.264C249.167 156.736 249.808 157.002 250.476 157.002C251.144 157.002 251.785 156.736 252.257 156.264C252.729 155.792 252.995 155.151 252.995 154.483C252.995 153.815 252.729 153.174 252.257 152.702C251.785 152.229 251.144 151.964 250.476 151.964ZM260.551 151.964C259.883 151.964 259.242 152.229 258.77 152.702C258.298 153.174 258.032 153.815 258.032 154.483C258.032 155.151 258.298 155.792 258.77 156.264C259.242 156.736 259.883 157.002 260.551 157.002C261.219 157.002 261.86 156.736 262.332 156.264C262.804 155.792 263.07 155.151 263.07 154.483C263.07 153.815 262.804 153.174 262.332 152.702C261.86 152.229 261.219 151.964 260.551 151.964ZM270.626 151.964C269.958 151.964 269.317 152.229 268.845 152.702C268.372 153.174 268.107 153.815 268.107 154.483C268.107 155.151 268.372 155.792 268.845 156.264C269.317 156.736 269.958 157.002 270.626 157.002C271.294 157.002 271.934 156.736 272.407 156.264C272.879 155.792 273.145 155.151 273.145 154.483C273.145 153.815 272.879 153.174 272.407 152.702C271.934 152.229 271.294 151.964 270.626 151.964ZM235.364 162.039C234.696 162.039 234.055 162.304 233.583 162.777C233.11 163.249 232.845 163.89 232.845 164.558C232.845 165.226 233.11 165.866 233.583 166.339C234.055 166.811 234.696 167.077 235.364 167.077C236.032 167.077 236.672 166.811 237.145 166.339C237.617 165.866 237.882 165.226 237.882 164.558C237.882 163.89 237.617 163.249 237.145 162.777C236.672 162.304 236.032 162.039 235.364 162.039ZM245.438 162.039C244.77 162.039 244.13 162.304 243.657 162.777C243.185 163.249 242.92 163.89 242.92 164.558C242.92 165.226 243.185 165.866 243.657 166.339C244.13 166.811 244.77 167.077 245.438 167.077C246.107 167.077 246.747 166.811 247.22 166.339C247.692 165.866 247.957 165.226 247.957 164.558C247.957 163.89 247.692 163.249 247.22 162.777C246.747 162.304 246.107 162.039 245.438 162.039ZM255.513 162.039C254.845 162.039 254.205 162.304 253.732 162.777C253.26 163.249 252.995 163.89 252.995 164.558C252.995 165.226 253.26 165.866 253.732 166.339C254.205 166.811 254.845 167.077 255.513 167.077C256.181 167.077 256.822 166.811 257.294 166.339C257.767 165.866 258.032 165.226 258.032 164.558C258.032 163.89 257.767 163.249 257.294 162.777C256.822 162.304 256.181 162.039 255.513 162.039ZM265.588 162.039C264.92 162.039 264.28 162.304 263.807 162.777C263.335 163.249 263.07 163.89 263.07 164.558C263.07 165.226 263.335 165.866 263.807 166.339C264.28 166.811 264.92 167.077 265.588 167.077C266.256 167.077 266.897 166.811 267.369 166.339C267.842 165.866 268.107 165.226 268.107 164.558C268.107 163.89 267.842 163.249 267.369 162.777C266.897 162.304 266.256 162.039 265.588 162.039ZM275.663 162.039C274.995 162.039 274.355 162.304 273.882 162.777C273.41 163.249 273.145 163.89 273.145 164.558C273.145 165.226 273.41 165.866 273.882 166.339C274.355 166.811 274.995 167.077 275.663 167.077C276.331 167.077 276.972 166.811 277.444 166.339C277.917 165.866 278.182 165.226 278.182 164.558C278.182 163.89 277.917 163.249 277.444 162.777C276.972 162.304 276.331 162.039 275.663 162.039ZM235.364 184.708H275.663V189.745H235.364V184.708ZM193.805 197.301C188.966 197.301 184.989 201.278 184.989 206.117C184.989 210.956 188.966 214.932 193.805 214.932C198.643 214.932 202.62 210.956 202.62 206.117C202.62 201.278 198.643 197.301 193.805 197.301ZM317.222 197.301C312.383 197.301 308.407 201.278 308.407 206.117C308.407 210.956 312.383 214.932 317.222 214.932C322.061 214.932 326.038 210.956 326.038 206.117C326.038 201.278 322.061 197.301 317.222 197.301ZM193.805 202.339C195.921 202.339 197.583 204.001 197.583 206.117C197.583 208.234 195.921 209.895 193.805 209.895C191.688 209.895 190.026 208.234 190.026 206.117C190.026 204.001 191.688 202.339 193.805 202.339ZM317.222 202.339C319.339 202.339 321 204.001 321 206.117C321 208.234 319.339 209.895 317.222 209.895C315.106 209.895 313.444 208.234 313.444 206.117C313.444 204.001 315.106 202.339 317.222 202.339Z" fill="#BDA472"/>
<path d="M95.5346 359.917L95.8348 360.304H96.3246H106.28H108.33L107.068 358.688L78.266 321.835L77.9657 321.451H77.4781H67.7246H65.6827L66.9346 323.064L95.5346 359.917Z" fill="#BDA472" stroke="#BDA472" stroke-width="2"/>
<path d="M286.883 359.225V360.225H287.883H297.374H298.374V359.225V325.148H338.167V359.225V360.225H339.167H348.658H349.658V359.225V280.801V279.801H348.658H339.167H338.167V280.801V314.724H298.374V280.801V279.801H297.374H287.883H286.883V280.801V359.225Z" fill="#BDA472" stroke="#BDA472" stroke-width="2"/>
<path d="M437.204 280.468L436.969 279.801H436.261H426.311H424.878L425.372 281.145L454.152 359.569L454.393 360.225H455.091H464.888H465.586L465.826 359.569L494.607 281.145L495.1 279.801H493.668H483.718H483.01L482.775 280.468L459.989 345.114L437.204 280.468Z" fill="#BDA472" stroke="#BDA472" stroke-width="2"/>
<path d="M27.5449 288.696V289.404L28.2122 289.639L92.8223 312.438L28.2122 335.237L27.5449 335.472V336.18V346.136V347.568L28.8898 347.074L107.27 318.278L107.926 318.038V317.34V307.536V306.838L107.27 306.598L28.8898 277.802L27.5449 277.307V278.74V288.696Z" fill="#BDA472" stroke="#BDA472" stroke-width="2"/>
<path d="M373.824 360.211H374.532L374.767 359.543L397.552 294.899L420.337 359.543L420.573 360.211H421.28H431.231H432.663L432.17 358.866L403.39 280.443L403.149 279.787H402.451H392.653H391.955L391.715 280.443L362.934 358.866L362.441 360.211H363.873H373.824Z" fill="#BDA472" stroke="#BDA472" stroke-width="2"/>
<path d="M136.494 360.935H137.201L137.437 360.268L160.222 295.624L183.008 360.268L183.243 360.935H183.951H193.901H195.334L194.84 359.591L166.06 281.167L165.819 280.512H165.121H155.323H154.625L154.384 281.167L125.604 359.591L125.111 360.935H126.543H136.494Z" fill="#BDA472" stroke="#BDA472" stroke-width="2"/>
<path d="M259.783 304.63L260.008 305.32H260.734H270.531H271.737L271.514 304.135C270.779 300.222 269.438 296.649 267.484 293.426C265.536 290.186 263.098 287.403 260.173 285.082C257.272 282.735 253.968 280.932 250.268 279.671C246.581 278.381 242.617 277.74 238.383 277.74C233.231 277.74 228.485 278.696 224.161 280.622C219.842 282.546 216.101 285.314 212.946 288.918C209.787 292.527 207.353 296.884 205.632 301.97L205.631 301.973C203.933 307.045 203.092 312.733 203.092 319.024C203.092 327.411 204.566 334.715 207.554 340.903L207.556 340.906C210.565 347.084 214.769 351.879 220.172 355.255L220.174 355.256C225.607 358.634 231.892 360.308 238.996 360.308C245.364 360.308 251.044 358.975 256.006 356.281L256.008 356.28C260.993 353.562 264.903 349.729 267.725 344.795C270.581 339.845 271.991 334.052 271.991 327.449V319.024V318.024H270.991H241.139H240.139V319.024V327.449V328.449H241.139H260.767C260.573 332.429 259.648 335.898 258.02 338.878L258.018 338.88C256.193 342.24 253.648 344.834 250.371 346.681C247.122 348.5 243.34 349.425 238.996 349.425C234.322 349.425 230.143 348.27 226.433 345.974L226.433 345.974C222.737 343.688 219.783 340.306 217.583 335.781C215.395 331.28 214.277 325.708 214.277 319.024C214.277 312.339 215.383 306.765 217.546 302.264C219.723 297.735 222.629 294.354 226.249 292.069C229.885 289.774 233.922 288.624 238.383 288.624C241.125 288.624 243.622 288.995 245.884 289.725C248.151 290.456 250.163 291.513 251.928 292.892L251.933 292.896C253.729 294.281 255.274 295.959 256.567 297.936L256.571 297.942L256.575 297.948C257.896 299.906 258.967 302.131 259.783 304.63Z" fill="#BDA472" stroke="#BDA472" stroke-width="2"/>
</svg>
